HIERARCHY
ROOT Hips
{
	OFFSET 0.000000 100.481300 0.000000
	CHANNELS 6 Xposition Yposition Zposition Xrotation Yrotation Zrotation
	JOINT Spine
	{
		OFFSET -0.279200 12.230698 -2.892100
		CHANNELS 3 Xrotation Yrotation Zrotation
		JOINT Spine1
		{
			OFFSET -0.325700 14.269203 -3.374200
			CHANNELS 3 Xrotation Yrotation Zrotation
			JOINT Spine2
			{
				OFFSET -0.372300 16.307602 -0.352600
				CHANNELS 3 Xrotation Yrotation Zrotation
				JOINT Neck
				{
					OFFSET -0.418800 17.814194 8.416900
					CHANNELS 3 Xrotation Yrotation Zrotation
					JOINT Head
					{
						OFFSET 0.000000 7.031097 3.806800
						CHANNELS 3 Xrotation Yrotation Zrotation
						JOINT HeadTop_End
						{
							OFFSET 0.000000 24.646606 12.978600
							CHANNELS 3 Xrotation Yrotation Zrotation
							End Site
							{
								OFFSET 0.000000 27.854965 0.000000
							}
						}
					}
				}
				JOINT LeftShoulder
				{
					OFFSET 16.952999 14.495407 -7.737500
					CHANNELS 3 Xrotation Yrotation Zrotation
					JOINT LeftArm
					{
						OFFSET 9.308998 -2.777710 0.208600
						CHANNELS 3 Xrotation Yrotation Zrotation
						JOINT LeftForeArm
						{
							OFFSET 29.972298 0.000000 0.000000
							CHANNELS 3 Xrotation Yrotation Zrotation
							JOINT LeftHand
							{
								OFFSET 26.026505 0.000000 0.000000
								CHANNELS 3 Xrotation Yrotation Zrotation
								JOINT LeftHandThumb1
								{
									OFFSET 12.240501 -7.147949 9.207150
									CHANNELS 3 Xrotation Yrotation Zrotation
									JOINT LeftHandThumb2
									{
										OFFSET 4.138618 -2.389435 2.389433
										CHANNELS 3 Xrotation Yrotation Zrotation
										JOINT LeftHandThumb3
										{
											OFFSET 2.726913 -1.574387 1.574386
											CHANNELS 3 Xrotation Yrotation Zrotation
											JOINT LeftHandThumb4
											{
												OFFSET 3.941010 -2.275345 2.275342
												CHANNELS 3 Xrotation Yrotation Zrotation
												End Site
												{
													OFFSET -0.005798 5.087799 0.009903
												}
											}
										}
									}
								}
								JOINT LeftHandIndex1
								{
									OFFSET 24.424698 -1.985611 5.953459
									CHANNELS 3 Xrotation Yrotation Zrotation
									JOINT LeftHandIndex2
									{
										OFFSET 6.426697 0.000000 0.000000
										CHANNELS 3 Xrotation Yrotation Zrotation
										JOINT LeftHandIndex3
										{
											OFFSET 5.337898 0.000000 0.000000
											CHANNELS 3 Xrotation Yrotation Zrotation
											JOINT LeftHandIndex4
											{
												OFFSET 4.409401 0.000000 0.000000
												CHANNELS 3 Xrotation Yrotation Zrotation
												End Site
												{
													OFFSET 0.000000 4.409363 0.014373
												}
											}
										}
									}
								}
								JOINT LeftHandMiddle1
								{
									OFFSET 23.810104 0.000000 0.000000
									CHANNELS 3 Xrotation Yrotation Zrotation
									JOINT LeftHandMiddle2
									{
										OFFSET 7.176498 0.000000 0.000000
										CHANNELS 3 Xrotation Yrotation Zrotation
										JOINT LeftHandMiddle3
										{
											OFFSET 6.774902 0.000000 0.000000
											CHANNELS 3 Xrotation Yrotation Zrotation
											JOINT LeftHandMiddle4
											{
												OFFSET 5.403328 0.000000 0.000000
												CHANNELS 3 Xrotation Yrotation Zrotation
												End Site
												{
													OFFSET -0.027702 5.403244 0.017414
												}
											}
										}
									}
								}
								JOINT LeftHandRing1
								{
									OFFSET 22.908401 -0.839279 -6.020567
									CHANNELS 3 Xrotation Yrotation Zrotation
									JOINT LeftHandRing2
									{
										OFFSET 6.337502 0.000000 0.000000
										CHANNELS 3 Xrotation Yrotation Zrotation
										JOINT LeftHandRing3
										{
											OFFSET 5.779297 0.000000 0.000000
											CHANNELS 3 Xrotation Yrotation Zrotation
											JOINT LeftHandRing4
											{
												OFFSET 4.965698 0.000000 0.000000
												CHANNELS 3 Xrotation Yrotation Zrotation
												End Site
												{
													OFFSET 0.000000 4.965668 0.016186
												}
											}
										}
									}
								}
								JOINT LeftHandPinky1
								{
									OFFSET 20.037003 -1.530319 -10.950146
									CHANNELS 3 Xrotation Yrotation Zrotation
									JOINT LeftHandPinky2
									{
										OFFSET 5.254700 0.000000 0.000000
										CHANNELS 3 Xrotation Yrotation Zrotation
										JOINT LeftHandPinky3
										{
											OFFSET 4.810204 0.000000 0.000000
											CHANNELS 3 Xrotation Yrotation Zrotation
											JOINT LeftHandPinky4
											{
												OFFSET 3.647202 0.000000 0.000000
												CHANNELS 3 Xrotation Yrotation Zrotation
												End Site
												{
													OFFSET 0.000000 3.647186 0.011889
												}
											}
										}
									}
								}
							}
						}
					}
				}
				JOINT RightShoulder
				{
					OFFSET -15.141001 14.495407 -7.737500
					CHANNELS 3 Xrotation Yrotation Zrotation
					JOINT RightArm
					{
						OFFSET -9.308998 -2.777710 0.208500
						CHANNELS 3 Xrotation Yrotation Zrotation
						JOINT RightForeArm
						{
							OFFSET -29.972300 0.000000 0.000000
							CHANNELS 3 Xrotation Yrotation Zrotation
							JOINT RightHand
							{
								OFFSET -26.026505 0.000000 0.000000
								CHANNELS 3 Xrotation Yrotation Zrotation
								JOINT RightHandThumb1
								{
									OFFSET -12.240601 -7.148026 9.207092
									CHANNELS 3 Xrotation Yrotation Zrotation
									JOINT RightHandThumb2
									{
										OFFSET -4.138618 -2.389435 2.389433
										CHANNELS 3 Xrotation Yrotation Zrotation
										JOINT RightHandThumb3
										{
											OFFSET -2.726974 -1.574417 1.574421
											CHANNELS 3 Xrotation Yrotation Zrotation
											JOINT RightHandThumb4
											{
												OFFSET -3.941010 -2.275345 2.275343
												CHANNELS 3 Xrotation Yrotation Zrotation
												End Site
												{
													OFFSET 0.005814 5.087799 0.009927
												}
											}
										}
									}
								}
								JOINT RightHandIndex1
								{
									OFFSET -24.424698 -1.985657 5.953444
									CHANNELS 3 Xrotation Yrotation Zrotation
									JOINT RightHandIndex2
									{
										OFFSET -6.426697 0.000000 0.000000
										CHANNELS 3 Xrotation Yrotation Zrotation
										JOINT RightHandIndex3
										{
											OFFSET -5.337898 0.000000 0.000000
											CHANNELS 3 Xrotation Yrotation Zrotation
											JOINT RightHandIndex4
											{
												OFFSET -4.409401 0.000000 0.000000
												CHANNELS 3 Xrotation Yrotation Zrotation
												End Site
												{
													OFFSET 0.000000 4.409363 0.014408
												}
											}
										}
									}
								}
								JOINT RightHandMiddle1
								{
									OFFSET -23.810097 0.000000 0.000000
									CHANNELS 3 Xrotation Yrotation Zrotation
									JOINT RightHandMiddle2
									{
										OFFSET -7.176498 0.000000 0.000000
										CHANNELS 3 Xrotation Yrotation Zrotation
										JOINT RightHandMiddle3
										{
											OFFSET -6.774902 0.000000 0.000000
											CHANNELS 3 Xrotation Yrotation Zrotation
											JOINT RightHandMiddle4
											{
												OFFSET -5.403328 0.000000 0.000000
												CHANNELS 3 Xrotation Yrotation Zrotation
												End Site
												{
													OFFSET 0.027702 5.403244 0.017457
												}
											}
										}
									}
								}
								JOINT RightHandRing1
								{
									OFFSET -22.908302 -0.839325 -6.020576
									CHANNELS 3 Xrotation Yrotation Zrotation
									JOINT RightHandRing2
									{
										OFFSET -6.337502 0.000000 0.000000
										CHANNELS 3 Xrotation Yrotation Zrotation
										JOINT RightHandRing3
										{
											OFFSET -5.779297 0.000000 0.000000
											CHANNELS 3 Xrotation Yrotation Zrotation
											JOINT RightHandRing4
											{
												OFFSET -4.965698 0.000000 0.000000
												CHANNELS 3 Xrotation Yrotation Zrotation
												End Site
												{
													OFFSET 0.000000 4.965668 0.016226
												}
											}
										}
									}
								}
								JOINT RightHandPinky1
								{
									OFFSET -20.037003 -1.530334 -10.950259
									CHANNELS 3 Xrotation Yrotation Zrotation
									JOINT RightHandPinky2
									{
										OFFSET -5.254700 0.000000 0.000000
										CHANNELS 3 Xrotation Yrotation Zrotation
										JOINT RightHandPinky3
										{
											OFFSET -4.810204 0.000000 0.000000
											CHANNELS 3 Xrotation Yrotation Zrotation
											JOINT RightHandPinky4
											{
												OFFSET -3.647202 0.000000 0.000000
												CHANNELS 3 Xrotation Yrotation Zrotation
												End Site
												{
													OFFSET 0.000000 3.647186 0.011917
												}
											}
										}
									}
								}
							}
						}
					}
				}
			}
		}
	}
	JOINT LeftUpLeg
	{
		OFFSET 15.427100 -6.655098 0.678600
		CHANNELS 3 Xrotation Yrotation Zrotation
		JOINT LeftLeg
		{
			OFFSET 4.081073 -39.591068 13.024000
			CHANNELS 3 Xrotation Yrotation Zrotation
			JOINT LeftFoot
			{
				OFFSET -4.081074 -37.707932 -15.979700
				CHANNELS 3 Xrotation Yrotation Zrotation
				JOINT LeftToeBase
				{
					OFFSET 5.346399 -15.068900 20.645000
					CHANNELS 3 Xrotation Yrotation Zrotation
					JOINT LeftToe_End
					{
						OFFSET 2.754700 0.931300 11.300900
						CHANNELS 3 Xrotation Yrotation Zrotation
						End Site
						{
							OFFSET 0.000000 11.669021 0.000000
						}
					}
				}
			}
		}
	}
	JOINT RightUpLeg
	{
		OFFSET -15.569500 -6.655098 0.678600
		CHANNELS 3 Xrotation Yrotation Zrotation
		JOINT RightLeg
		{
			OFFSET -4.081825 -39.591045 13.023800
			CHANNELS 3 Xrotation Yrotation Zrotation
			JOINT RightFoot
			{
				OFFSET 4.081824 -37.707954 -15.979600
				CHANNELS 3 Xrotation Yrotation Zrotation
				JOINT RightToeBase
				{
					OFFSET -5.346400 -15.068900 20.645000
					CHANNELS 3 Xrotation Yrotation Zrotation
					JOINT RightToe_End
					{
						OFFSET -2.754700 0.931300 11.300900
						CHANNELS 3 Xrotation Yrotation Zrotation
						End Site
						{
							OFFSET 0.000000 11.669021 0.000000
						}
					}
				}
			}
		}
	}
}
MOTION
Frames: 4
Frame Time: 0.033333
8.403003 79.341660 36.243279 -11.137879 -53.230123 -3.721948 12.256319 6.623104 -0.855935 7.726687 -0.432008 -3.806386 7.837207 -0.518778 -3.390139 -4.761105 15.902280 5.752268 3.147139 28.007723 -8.310443 -0.000000 0.000000 -0.000001 3.450630 6.019367 -3.091036 -49.889536 19.223653 -57.864372 0.000001 -126.229846 0.000001 -5.940058 -5.832249 -11.915479 -6.141230 -11.690799 -6.761699 9.914100 42.595515 3.409881 -0.422803 8.108093 27.509103 0.000001 0.000000 -0.000000 0.255314 3.378215 -45.814341 5.654093 5.847753 -88.067462 2.162140 4.544814 -50.866365 0.000000 0.000001 -0.000001 -0.461472 3.841593 -39.722690 6.450752 5.820359 -95.892871 2.182893 4.561565 -51.127729 0.000001 0.000001 0.000001 0.469722 4.966826 -39.799437 8.181042 5.368614 -113.503011 3.200489 5.218117 -63.022982 0.000001 -0.000001 -0.000002 -3.762431 9.063685 -45.253825 5.342534 5.829009 -85.005331 8.716837 5.103335 -119.369181 0.000001 -0.000001 0.000000 2.207865 8.275269 -7.268756 -52.540359 30.273103 93.098047 0.000050 115.814245 -0.000064 -3.407110 14.734786 8.365440 -7.341121 13.749651 7.412345 9.855800 -44.489093 -3.903250 -0.115783 -14.513073 -28.973874 -0.000002 -0.000001 0.000002 -0.124375 -2.384788 45.108874 4.500582 -4.654543 88.071143 1.723232 -3.618373 50.920122 -0.000001 -0.000002 -0.000001 -0.761622 -2.932900 39.031068 5.133886 -4.632759 95.881649 1.739743 -3.631705 51.181370 -0.000001 -0.000000 -0.000001 0.154762 -4.068816 39.122668 6.509735 -4.273601 113.462891 2.549588 -4.153924 63.067337 0.000002 0.000001 -0.000001 -4.198878 -8.025510 44.637772 4.252912 -4.639633 85.014791 6.935967 -4.062632 119.322298 0.000000 0.000001 -0.000000 -28.632110 8.174023 16.714935 50.823721 -7.406579 3.995736 -14.606493 -19.456793 -24.889631 -5.174518 -0.247476 3.124543 0.000000 0.000000 -0.000000 -17.805832 -7.557387 -37.248440 51.774179 -4.611000 -1.999320 -9.367808 -12.413241 23.700951 -7.404345 0.000030 -0.000004 -0.000000 0.000000 0.000000 
8.282290 80.408295 33.365494 -10.207151 -54.657411 -4.105198 11.813715 6.606127 -1.106728 7.034942 -0.270265 -3.402565 7.140436 -0.359104 -3.033203 -4.267471 16.082579 6.171394 4.293154 28.789835 -8.376605 -0.000001 0.000000 -0.000000 3.303882 6.042206 -2.479986 -48.774562 18.568055 -58.037217 0.000004 -125.250684 -0.000001 -5.033853 -5.302815 -12.696431 -6.141230 -11.690800 -6.761704 9.914101 42.595519 3.409887 -0.422801 8.108089 27.509106 0.000000 -0.000004 0.000001 0.255314 3.378217 -45.814341 5.654092 5.847752 -88.067462 2.162140 4.544813 -50.866369 -0.000002 0.000000 -0.000001 -0.461471 3.841591 -39.722693 6.450754 5.820359 -95.892871 2.182893 4.561568 -51.127736 -0.000001 0.000002 -0.000002 0.469724 4.966823 -39.799444 8.181039 5.368615 -113.503011 3.200490 5.218117 -63.022982 0.000002 0.000000 -0.000000 -3.762428 9.063685 -45.253825 5.342533 5.829009 -85.005331 8.716836 5.103333 -119.369167 -0.000001 -0.000000 0.000001 2.426379 9.114578 -5.852989 -51.226251 30.764651 92.632938 -0.000008 115.389148 0.000012 -3.355269 14.358533 8.610866 -7.341121 13.749645 7.412345 9.855796 -44.489086 -3.903258 -0.115785 -14.513071 -28.973871 0.000000 -0.000002 0.000002 -0.124376 -2.384787 45.108874 4.500580 -4.654542 88.071143 1.723232 -3.618377 50.920129 0.000000 0.000000 -0.000000 -0.761623 -2.932900 39.031068 5.133889 -4.632760 95.881649 1.739744 -3.631705 51.181374 0.000000 0.000001 0.000001 0.154760 -4.068816 39.122671 6.509734 -4.273600 113.462884 2.549589 -4.153924 63.067337 -0.000003 -0.000000 0.000000 -4.198878 -8.025507 44.637766 4.252904 -4.639634 85.014791 6.935965 -4.062627 119.322312 -0.000000 0.000001 -0.000001 -24.925671 10.347374 14.332737 52.233605 -5.793791 2.969905 -19.907966 -19.119431 -21.979318 -5.392428 -0.008378 0.572411 0.000000 0.000000 0.000000 -21.289724 -7.090470 -36.272467 52.458909 -4.929095 -0.886487 -5.538971 -7.870906 23.237347 -9.495560 -0.001936 0.489737 -0.000000 0.000000 -0.000000 
7.849301 81.187279 30.276123 -8.945241 -56.683108 -3.869330 11.291225 6.525655 -2.123554 6.126706 -0.118504 -2.885140 6.226624 -0.211163 -2.563300 -3.768631 16.343217 6.654826 5.245328 29.953245 -8.350279 0.000001 0.000000 0.000000 3.127270 6.270463 -1.906849 -47.634989 18.635744 -57.786255 0.000024 -124.157662 0.000030 -4.475682 -4.934523 -13.340701 -6.141227 -11.690799 -6.761697 9.914102 42.595515 3.409884 -0.422803 8.108090 27.509106 -0.000001 -0.000003 0.000000 0.255313 3.378218 -45.814341 5.654095 5.847753 -88.067462 2.162140 4.544811 -50.866365 -0.000000 0.000001 -0.000002 -0.461472 3.841595 -39.722690 6.450751 5.820360 -95.892871 2.182893 4.561568 -51.127733 0.000001 0.000000 0.000001 0.469720 4.966826 -39.799441 8.181045 5.368613 -113.503011 3.200490 5.218116 -63.022975 0.000000 -0.000000 0.000001 -3.762431 9.063686 -45.253825 5.342530 5.829010 -85.005331 8.716839 5.103335 -119.369181 0.000003 -0.000001 0.000000 2.608619 9.794768 -4.209494 -50.750238 31.706452 91.055827 0.000014 114.387528 -0.000025 -3.969133 14.080982 8.823685 -7.341122 13.749653 7.412341 9.855811 -44.489086 -3.903250 -0.115784 -14.513071 -28.973874 -0.000001 0.000000 -0.000002 -0.124375 -2.384786 45.108871 4.500583 -4.654541 88.071137 1.723232 -3.618378 50.920126 -0.000003 -0.000000 0.000001 -0.761625 -2.932899 39.031065 5.133889 -4.632757 95.881656 1.739745 -3.631702 51.181374 -0.000002 0.000002 -0.000000 0.154761 -4.068815 39.122664 6.509733 -4.273602 113.462891 2.549589 -4.153923 63.067337 -0.000001 0.000000 -0.000002 -4.198878 -8.025506 44.637766 4.252913 -4.639633 85.014791 6.935967 -4.062627 119.322312 0.000001 0.000000 -0.000001 -21.691789 12.634391 11.947768 50.862612 -5.155377 2.302693 -21.999363 -17.150303 -13.597672 -7.053363 -0.000009 -0.000002 -0.000000 -0.000003 -0.000000 -26.400146 -7.109567 -34.722301 52.491066 0.879085 -0.651012 -1.143855 -5.292434 21.759057 -11.279984 -0.060023 2.763467 0.000000 0.000000 0.000000 
7.347509 81.217102 27.319542 -8.040218 -58.450321 -4.001148 10.790922 6.470396 -3.040810 5.237281 0.004611 -2.260072 5.330002 -0.084903 -1.986210 -3.430686 16.540563 7.281055 6.022505 31.034686 -8.230214 -0.000000 -0.000000 0.000000 2.976336 6.343464 -1.393903 -47.806502 19.086130 -57.000176 -0.000007 -122.973212 0.000002 -4.592003 -4.967959 -13.558503 -6.141231 -11.690799 -6.761699 9.914103 42.595515 3.409879 -0.422799 8.108081 27.509111 -0.000002 -0.000001 0.000000 0.255311 3.378215 -45.814341 5.654095 5.847754 -88.067462 2.162141 4.544815 -50.866365 -0.000001 0.000001 -0.000002 -0.461474 3.841593 -39.722690 6.450754 5.820358 -95.892871 2.182892 4.561567 -51.127733 -0.000001 0.000000 -0.000000 0.469720 4.966824 -39.799437 8.181043 5.368615 -113.503011 3.200490 5.218119 -63.022982 -0.000002 0.000001 -0.000000 -3.762432 9.063685 -45.253821 5.342528 5.829009 -85.005331 8.716839 5.103339 -119.369181 -0.000001 0.000001 -0.000001 2.710969 10.128097 -2.850143 -51.430577 32.466331 89.208124 -0.000015 112.948605 0.000026 -4.834191 13.864064 8.936150 -7.341121 13.749653 7.412344 9.855800 -44.489089 -3.903255 -0.115782 -14.513071 -28.973874 0.000002 0.000000 0.000002 -0.124376 -2.384788 45.108874 4.500585 -4.654540 88.071143 1.723228 -3.618376 50.920126 0.000002 -0.000002 -0.000002 -0.761623 -2.932899 39.031065 5.133888 -4.632759 95.881656 1.739746 -3.631705 51.181363 0.000001 0.000000 -0.000002 0.154761 -4.068815 39.122668 6.509733 -4.273597 113.462891 2.549587 -4.153923 63.067337 -0.000001 -0.000000 0.000000 -4.198878 -8.025510 44.637766 4.252907 -4.639633 85.014798 6.935965 -4.062627 119.322312 0.000003 0.000000 -0.000000 -19.942499 13.877566 10.822301 48.614110 -6.061347 2.502282 -23.083937 -12.542912 -6.222746 -6.135634 -0.000022 -0.000005 0.000000 -0.000002 -0.000000 -30.385814 -7.066827 -33.867452 52.166092 5.411409 -0.936045 2.037398 0.624774 20.854535 -18.294675 -0.091917 0.482614 0.000000 -0.000000 0.000000 
